<?xml version="1.0" encoding="UTF-8" standalone="no"?>
<!-- Created with Inkscape (http://www.inkscape.org/) -->

<svg
   xmlns:dc="http://purl.org/dc/elements/1.1/"
   xmlns:cc="http://creativecommons.org/ns#"
   xmlns:rdf="http://www.w3.org/1999/02/22-rdf-syntax-ns#"
   xmlns:svg="http://www.w3.org/2000/svg"
   xmlns="http://www.w3.org/2000/svg"
   xmlns:sodipodi="http://sodipodi.sourceforge.net/DTD/sodipodi-0.dtd"
   xmlns:inkscape="http://www.inkscape.org/namespaces/inkscape"
   width="520"
   height="520"
   viewBox="0 0 137.58333 137.58333"
   version="1.1"
   id="svg8"
   inkscape:version="0.92.5 (2060ec1f9f, 2020-04-08)"
   sodipodi:docname="bp-mark-black.svg">
  <title
     id="title1212">Bruno Paulo Mark</title>
  <defs
     id="defs2" />
  <sodipodi:namedview
     id="base"
     pagecolor="#ffffff"
     bordercolor="#666666"
     borderopacity="1.0"
     inkscape:pageopacity="0.0"
     inkscape:pageshadow="2"
     inkscape:zoom="0.49497475"
     inkscape:cx="41.747578"
     inkscape:cy="341.5794"
     inkscape:document-units="mm"
     inkscape:current-layer="layer1"
     showgrid="false"
     inkscape:window-width="1366"
     inkscape:window-height="704"
     inkscape:window-x="0"
     inkscape:window-y="27"
     inkscape:window-maximized="1"
     units="px" />
  <metadata
     id="metadata5">
    <rdf:RDF>
      <cc:Work
         rdf:about="">
        <dc:format>image/svg+xml</dc:format>
        <dc:type
           rdf:resource="http://purl.org/dc/dcmitype/StillImage" />
        <dc:title>Bruno Paulo Mark</dc:title>
        <dc:date>June, 21 2020</dc:date>
        <dc:creator>
          <cc:Agent>
            <dc:title>Bruno Paulo</dc:title>
          </cc:Agent>
        </dc:creator>
      </cc:Work>
    </rdf:RDF>
  </metadata>
  <g
     inkscape:label="Layer 1"
     inkscape:groupmode="layer"
     id="layer1"
     transform="translate(0,-159.41671)">
    <g
       id="g1135"
       transform="matrix(0.98778002,0,0,0.98737437,7.0554138,-3.3309206)">
      <rect
         ry="11.654265"
         rx="11.654267"
         y="174.9762"
         x="2.9761903"
         height="119.04762"
         width="119.04762"
         id="rect815"
         style="opacity:1;fill:none;fill-opacity:1;fill-rule:nonzero;stroke:#000000;stroke-width:7.5;stroke-linecap:butt;stroke-miterlimit:4;stroke-dasharray:none" />
      <g
         transform="matrix(0.74180799,0,0,0.74551967,0.15943552,173.12399)"
         id="g967">
        <g
           aria-label="B"
           style="font-style:normal;font-variant:normal;font-weight:normal;font-stretch:normal;font-size:22.8417263px;line-height:1.25;font-family:'Arial Black';-inkscape-font-specification:'Arial Black, ';letter-spacing:0px;word-spacing:0px;fill:#000000;fill-opacity:1;stroke:#000000;stroke-width:1;stroke-linejoin:round;stroke-miterlimit:4;stroke-dasharray:none;stroke-opacity:1"
           id="text819">
          <path
             inkscape:connector-curvature="0"
             d="m 58.148789,55.687285 q 4.702556,0 7.131348,-2.067057 2.428793,-2.067057 2.428793,-6.097819 0,-3.979086 -2.428793,-6.046143 -2.428792,-2.118734 -7.131348,-2.118734 h -11.00708 v 16.329753 z m 0.671794,33.744711 q 5.994466,0 8.991699,-2.532145 3.04891,-2.532145 3.04891,-7.648112 0,-5.012614 -2.997233,-7.493083 -2.997233,-2.532145 -9.043376,-2.532145 H 47.141709 V 89.431996 Z M 77.320746,61.681752 q 6.407878,1.860351 9.921876,6.872965 3.513997,5.012614 3.513997,12.298991 0,11.16211 -7.544759,16.639812 -7.54476,5.4777 -22.944337,5.4777 H 27.246282 V 25.818307 h 29.868979 q 16.071371,0 23.254395,4.857584 7.234701,4.857585 7.234701,15.554607 0,5.632731 -2.635499,9.611817 -2.635498,3.927408 -7.648112,5.839437 z"
             style="font-style:normal;font-variant:normal;font-weight:bold;font-stretch:normal;font-size:105.83333588px;font-family:sans-serif;-inkscape-font-specification:'sans-serif Bold';fill:#000000;fill-opacity:1;stroke:#000000;stroke-width:1;stroke-linejoin:round;stroke-miterlimit:4;stroke-dasharray:none;stroke-opacity:1"
             id="path941" />
        </g>
        <g
           aria-label="P"
           style="font-style:normal;font-variant:normal;font-weight:normal;font-stretch:normal;font-size:22.8417263px;line-height:1.25;font-family:'Arial Black';-inkscape-font-specification:'Arial Black, ';letter-spacing:0px;word-spacing:0px;fill:#000000;fill-opacity:1;stroke:#000000;stroke-width:1;stroke-linejoin:round;stroke-miterlimit:4;stroke-dasharray:none;stroke-opacity:1;paint-order:normal"
           id="text819-9"
           transform="translate(1.099023,-0.031422)">
          <path
             d="m 76.221723,61.713174 h 33.021237 c 9.81853,0 17.34606,2.187636 22.58261,6.562907 5.27099,4.34082 7.90649,10.541992 7.90649,18.603516 0,8.095975 -2.6355,14.331603 -7.90649,18.706873 -5.23655,4.34082 -12.76408,6.51123 -22.58261,6.51123 H 96.11715 v 26.76839 H 76.221723 V 100.5903 c 17.324129,-5.168305 18.311589,-34.593421 0,-38.877126 z M 96.11715,76.130899 v 21.549072 h 11.00708 c 3.85851,0 6.83851,-0.930176 8.94002,-2.790527 2.10151,-1.894803 3.15227,-4.564752 3.15227,-8.009847 0,-3.445096 -1.05076,-6.09782 -3.15227,-7.958171 -2.10151,-1.860351 -5.08151,-2.790527 -8.94002,-2.790527 z"
             style="font-style:normal;font-variant:normal;font-weight:bold;font-stretch:normal;font-size:105.83333588px;font-family:sans-serif;-inkscape-font-specification:'sans-serif Bold';fill:#000000;fill-opacity:1;stroke:#000000;stroke-width:1;stroke-linejoin:round;stroke-miterlimit:4;stroke-dasharray:none;stroke-opacity:1;paint-order:normal"
             id="path938"
             inkscape:connector-curvature="0"
             sodipodi:nodetypes="cscscscccccccscscsc" />
        </g>
      </g>
    </g>
  </g>
</svg>
