<?xml version="1.0" encoding="UTF-8" standalone="no"?>
<svg
   xmlns:dc="http://purl.org/dc/elements/1.1/"
   xmlns:cc="http://creativecommons.org/ns#"
   xmlns:rdf="http://www.w3.org/1999/02/22-rdf-syntax-ns#"
   xmlns:svg="http://www.w3.org/2000/svg"
   xmlns="http://www.w3.org/2000/svg"
   id="svg8"
   version="1.1"
   viewBox="0 0 135.46666 135.46666"
   height="512"
   width="512">
  <title
     id="title1212">Bruno Paulo Mark</title>
  <defs
     id="defs2" />
  <metadata
     id="metadata5">
    <rdf:RDF>
      <cc:Work
         rdf:about="">
        <dc:format>image/svg+xml</dc:format>
        <dc:type
           rdf:resource="http://purl.org/dc/dcmitype/StillImage" />
        <dc:title>Bruno Paulo Mark</dc:title>
        <dc:date>June 21, 2020</dc:date>
        <dc:creator>
          <cc:Agent>
            <dc:title>Bruno Paulo</dc:title>
          </cc:Agent>
        </dc:creator>
      </cc:Work>
    </rdf:RDF>
  </metadata>
  <g
     transform="translate(0,-161.53338)"
     id="layer1">
    <g
       id="brandmark">
      <path
         style="opacity:1;fill:none;fill-opacity:1;fill-rule:nonzero;stroke:#ffffff;stroke-width:7.40682888;stroke-linecap:butt;stroke-miterlimit:4;stroke-dasharray:none;stroke-opacity:1"
         d="m 20.448757,170.49443 h 94.569153 c 6.37757,0 11.51185,5.13218 11.51185,11.50712 v 94.53033 c 0,6.37494 -5.13428,11.50712 -11.51185,11.50712 H 20.448757 c -6.377566,0 -11.5118521,-5.13218 -11.5118521,-11.50712 v -94.53033 c 0,-6.37494 5.1342861,-11.50712 11.5118521,-11.50712 z"
         id="border" />
      <g
         aria-label="P"
         style="font-style:normal;font-variant:normal;font-weight:normal;font-stretch:normal;font-size:22.8417263px;line-height:1.25;font-family:'Arial Black';-inkscape-font-specification:'Arial Black, ';letter-spacing:0px;word-spacing:0px;fill:#ffffff;fill-opacity:1;stroke:#000000;stroke-width:1;stroke-linejoin:round;stroke-miterlimit:4;stroke-dasharray:none;stroke-opacity:1;paint-order:normal"
         id="letters"
         transform="matrix(0.73274311,0,0,0.73610701,68.966404,198.04213)">
        <path
           id="path938-9"
           style="font-style:normal;font-variant:normal;font-weight:bold;font-stretch:normal;font-size:105.83333588px;font-family:sans-serif;-inkscape-font-specification:'sans-serif Bold';fill:#ffffff;fill-opacity:1;stroke:#ffffff;stroke-width:1;stroke-linejoin:round;stroke-miterlimit:4;stroke-dasharray:none;stroke-opacity:1;paint-order:normal"
           d="m -8.400745,21.773807 h 33.021237 c 9.81853,0 17.34606,2.187636 22.58261,6.562907 5.27099,4.34082 7.90649,10.541992 7.90649,18.603516 0,8.095975 -2.6355,14.331603 -7.90649,18.706873 -5.23655,4.34082 -12.76408,6.51123 -22.58261,6.51123 h -13.12581 v 26.76839 H -8.400745 v -38.27579 c 17.324129,-5.168305 18.311589,-34.593421 0,-38.877126 z m 19.895427,14.417725 v 21.549072 h 11.00708 c 3.85851,0 6.83851,-0.930176 8.94002,-2.790527 2.10151,-1.894803 3.15227,-4.564752 3.15227,-8.009847 0,-3.445096 -1.05076,-6.09782 -3.15227,-7.958171 -2.10151,-1.860351 -5.08151,-2.790527 -8.94002,-2.790527 z M -27.572703,15.779336 q 4.702557,0 7.131349,-2.06705 2.428793,-2.067063 2.428793,-6.0978224 0,-3.9790818 -2.428793,-6.0461454 -2.428792,-2.1187273 -7.131349,-2.1187273 h -11.00708 V 15.779336 Z m 0.671795,33.744713 q 5.994466,0 8.991698,-2.532145 3.048911,-2.532145 3.048911,-7.648113 0,-5.012614 -2.997234,-7.493082 -2.997232,-2.532146 -9.043375,-2.532146 H -38.579783 V 49.524049 Z M -8.400745,21.773804 q 6.4078774,1.860355 9.9218756,6.872968 3.5139969,5.012614 3.5139969,12.298987 0,11.162113 -7.5447587,16.639809 -7.5447598,5.477709 -22.9443368,5.477709 H -58.47521 v -77.152913 h 29.86898 q 16.07137,0 23.2543953,4.8575815 7.2347006,4.8575818 7.2347006,15.5545999 0,5.6327406 -2.63549938,9.6118226 -2.63549802,3.927405 -7.64811152,5.839436 z" />
      </g>
    </g>
  </g>
</svg>
