<?xml version="1.0" encoding="UTF-8" standalone="no"?>
<svg
   xmlns:dc="http://purl.org/dc/elements/1.1/"
   xmlns:cc="http://creativecommons.org/ns#"
   xmlns:rdf="http://www.w3.org/1999/02/22-rdf-syntax-ns#"
   xmlns:svg="http://www.w3.org/2000/svg"
   xmlns="http://www.w3.org/2000/svg"
   id="svg2489"
   version="1.1"
   viewBox="0 0 135.46666 135.46667"
   height="512"
   width="512">
  <defs
     id="defs2483" />
  <metadata
     id="metadata2486">
    <rdf:RDF>
      <cc:Work
         rdf:about="">
        <dc:format>image/svg+xml</dc:format>
        <dc:type
           rdf:resource="http://purl.org/dc/dcmitype/StillImage" />
        <dc:title></dc:title>
      </cc:Work>
    </rdf:RDF>
  </metadata>
  <g
     transform="translate(0,-161.53332)"
     id="layer1">
    <path
       id="rect815-3"
       d="m 17.47025,166.76659 c -6.7793,0 -12.23698,5.45769 -12.23698,12.23698 v 100.52616 c 0,6.77929 5.45768,12.23698 12.23698,12.23698 h 100.52616 c 6.77929,0 12.23698,-5.45769 12.23698,-12.23698 V 179.00357 c 0,-6.77929 -5.45769,-12.23698 -12.23698,-12.23698 z m 3.20032,7.50032 h 94.125 c 4.39737,0 7.9375,3.54012 7.9375,7.9375 v 94.125 c 0,4.39737 -3.54013,7.9375 -7.9375,7.9375 h -94.125 c -4.39738,0 -7.9375,-3.54013 -7.9375,-7.9375 v -94.125 c 0,-4.39738 3.54012,-7.9375 7.9375,-7.9375 z"
       style="opacity:1;fill:#ffffff;fill-opacity:1;fill-rule:nonzero;stroke:none;stroke-width:7.875;stroke-linecap:butt;stroke-miterlimit:4;stroke-dasharray:none" />
    <text
       id="text1732"
       y="245.27994"
       x="18.018932"
       style="font-style:normal;font-weight:normal;font-size:25.39999962px;line-height:1.25;font-family:sans-serif;letter-spacing:0px;word-spacing:0px;fill:#ffffff;fill-opacity:1;stroke:none;stroke-width:0.26458332"
       xml:space="preserve"><tspan
         style="font-style:normal;font-variant:normal;font-weight:bold;font-stretch:normal;font-size:79.375px;line-height:1.25;font-family:sans-serif;-inkscape-font-specification:'sans-serif Bold';fill:#ffffff;stroke-width:0.26458332"
         y="245.27994"
         x="18.018932"
         id="tspan1730">B</tspan></text>
    <text
       id="text1732-5"
       y="270.96301"
       x="55.087185"
       style="font-style:normal;font-weight:normal;font-size:25.39999962px;line-height:1.25;font-family:sans-serif;letter-spacing:0px;word-spacing:0px;fill:#ffffff;fill-opacity:1;stroke:none;stroke-width:0.26458332"
       xml:space="preserve"><tspan
         style="font-style:normal;font-variant:normal;font-weight:bold;font-stretch:normal;font-size:79.375px;font-family:sans-serif;-inkscape-font-specification:'sans-serif Bold';fill:#ffffff;stroke-width:0.26458332"
         y="270.96301"
         x="55.087185"
         id="tspan1730-3">P</tspan></text>
  </g>
</svg>
