<svg id="bp-logo" version="1.1" viewBox="0 0 135.46666 135.46667">
    <path id="fill" d="m 11.654068,1.587505 c -5.5351302,0 -10.0665693,4.5314462 -10.0665693,10.066569 V 123.81259 c 0,5.53514 4.5314391,10.06657 10.0665693,10.06657 H 123.8126 c 5.53512,0 10.06657,-4.53143 10.06657,-10.06657 V 11.654074 c 0,-5.5351189 -4.53145,-10.066569 -10.06657,-10.066569 z m 33.103405,23.098331 c 4.643051,0.01072 9.331561,0.19353 13.804326,1.522905 3.485099,0.945483 6.821739,2.910734 8.78241,6.017204 1.961049,3.167742 2.517325,7.060528 2.136304,10.723893 -0.224605,2.939153 -1.555221,5.762051 -3.648358,7.818644 6.974593,-0.0069 13.948878,0.01862 20.92327,-0.0083 1.794354,-0.0094 3.590465,-0.0051 5.382102,0.101803 5.498224,0.285057 11.191773,1.787494 15.371153,5.54023 3.53545,3.062388 5.38669,7.683105 5.69681,12.282971 0.39907,5.036643 -0.60099,10.401327 -3.82767,14.416172 -3.31471,4.170717 -8.52168,6.346878 -13.679788,7.116879 -5.007988,0.730697 -10.086371,0.372877 -15.127758,0.454237 v 17.600476 c 0.07003,0.88368 0.07871,2.13534 -0.963766,2.44688 -4.556146,0.0722 -9.133567,0.01 -13.69787,0.0305 -0.887992,0.10129 -2.139575,0.005 -2.377633,-1.05833 0,-9.31205 0,-18.624224 0,-27.936274 -3.92765,1.98827 -8.46663,2.647955 -12.835393,2.85047 -8.700844,0.136731 -17.404783,0.03238 -26.106933,0.06511 -0.887992,0.101566 -2.140091,0.004 -2.37815,-1.058852 V 26.447486 c -0.166438,-0.767536 0.322688,-1.532822 1.05885,-1.758549 6.500652,1e-6 13.001002,0 19.501653,0 0.660691,-0.0027 1.323147,-0.0046 1.986441,-0.0031 z m 1.66243,12.274187 v 5.16e-4 H 39.249798 V 47.08912 c 2.199902,-0.0129 4.399785,0.02035 6.599597,-0.0088 2.054413,0.06031 4.462497,-0.156353 5.832203,-1.896526 1.094525,-1.66575 1.154295,-3.9424 0.329694,-5.737119 -1.035386,-2.012502 -3.520373,-2.514018 -5.591389,-2.486668 z m -7.170105,22.402766 v 13.034864 c 1.102474,-5e-4 2.204818,-0.001 3.307292,-0.0016 2.825633,-0.104749 5.744538,0.325646 8.481652,-0.572577 1.885987,-0.564616 3.392715,-2.181905 3.710885,-4.140832 0.353983,-2.125226 0.274396,-4.608571 -1.284674,-6.268869 -1.653331,-1.754944 -4.24852,-2.020786 -6.531385,-2.051036 z m 41.320476,4.335137 V 76.34263 c 0.129911,0.497174 -0.362508,1.616448 0.481108,1.399916 2.632178,-0.06543 5.26924,0.102407 7.897709,-0.06305 2.394728,-0.07776 4.929026,-1.152744 6.069396,-3.370336 1.037281,-2.32528 1.082916,-5.18966 -0.157612,-7.451225 -1.417053,-2.447764 -4.46165,-3.200855 -7.10706,-3.160014 z" fill="#ffffff"/>
    <path id="border" d="m 11.654067,1.5874971 c -5.5351295,0 -10.0665695,4.531447 -10.0665695,10.0665709 V 123.81259 c 0,5.53512 4.53144,10.06658 10.0665695,10.06658 H 123.8126 c 5.53512,0 10.06657,-4.53146 10.06657,-10.06658 V 11.654068 c 0,-5.5351199 -4.53145,-10.0665709 -10.06657,-10.0665709 z m 0,4.855518 H 123.8126 c 2.92924,0 5.21105,2.281793 5.21105,5.2110529 V 123.81259 c 0,2.92926 -2.28181,5.21105 -5.21105,5.21105 H 11.654067 c -2.9292495,0 -5.2110495,-2.2818 -5.2110495,-5.21105 V 11.654068 c 0,-2.9292559 2.28178,-5.2110529 5.2110495,-5.2110529 z" fill="#000000"/>
    <path id="letters" d="m 44.757531,24.68581 c -0.663294,-0.0015 -1.32575,3.97e-4 -1.986441,0.0031 -6.500651,0 -13.001001,1e-6 -19.501653,0 -0.736162,0.225727 -1.225288,0.991013 -1.05885,1.758549 v 57.164985 c 0.238059,1.062852 1.490158,1.160417 2.37815,1.058851 8.702149,-0.03273 17.406089,0.07162 26.106933,-0.06511 4.368763,-0.202515 8.907743,-0.862201 12.835392,-2.850471 v 27.936276 c 0.238057,1.06333 1.489642,1.15963 2.377634,1.05833 4.5643,-0.0205 9.141724,0.0417 13.69787,-0.0305 1.042477,-0.31153 1.033796,-1.56319 0.963766,-2.44688 V 90.672479 c 5.041387,-0.08136 10.11977,0.276461 15.12776,-0.454236 5.158108,-0.770001 10.365078,-2.946162 13.679778,-7.116879 3.22668,-4.014843 4.22675,-9.37953 3.82768,-14.416172 -0.31012,-4.599866 -2.16136,-9.220584 -5.69681,-12.282972 -4.17938,-3.752736 -9.872928,-5.255173 -15.371158,-5.540229 -1.79163,-0.106905 -3.58774,-0.111205 -5.382098,-0.101804 -6.974393,0.02692 -13.948678,0.0013 -20.923272,0.0083 2.093138,-2.056593 3.423751,-4.879491 3.648359,-7.818644 0.381018,-3.66341 -0.175255,-7.556196 -2.136305,-10.723938 -1.960671,-3.10647 -5.29731,-5.071721 -8.782409,-6.017204 -4.472766,-1.329375 -9.161275,-1.512184 -13.804326,-1.522905 z m 1.66243,12.274187 c 2.071016,-0.02735 4.556006,0.474167 5.591389,2.486668 0.824603,1.794719 0.764831,4.071368 -0.329695,5.737119 -1.369705,1.740172 -3.777789,1.956834 -5.832202,1.896525 -2.199812,0.02915 -4.399695,-0.0041 -6.599597,0.0088 v -10.12858 h 7.170105 z m -7.170105,22.402765 h 7.68377 c 2.282864,0.03025 4.878054,0.296095 6.531385,2.051037 1.559067,1.6603 1.638657,4.143642 1.284673,6.268868 -0.318169,1.958927 -1.824897,3.576217 -3.710884,4.140832 -2.737112,0.898224 -5.656019,0.467829 -8.481652,0.572577 -1.102474,5.29e-4 -2.204818,0.0011 -3.307292,0.0016 z m 41.320476,4.335137 h 7.183541 c 2.645409,-0.04084 5.690009,0.712248 7.107059,3.160014 1.24053,2.261563 1.19489,5.125945 0.15761,7.451225 -1.14037,2.217592 -3.67466,3.292575 -6.06939,3.370337 -2.628471,0.165457 -5.265534,-0.0024 -7.897712,0.06304 -0.843616,0.216533 -0.351197,-0.902739 -0.481108,-1.399915 z" fill="#000000"/>
</svg>