<svg id="github-mark" xmlns="http://www.w3.org/2000/svg" viewBox="0 0 31.749999 31.750001">
    <path
       id="github-mark-path"
       style="fill:#ffffff;fill-opacity:1;fill-rule:evenodd;stroke:none;stroke-width:0.0974561"
       d="M 15.873656,0.39172408 C 7.1084508,0.39172408 1e-6,7.4992005 1e-6,16.267326 c 0,7.013917 4.5482749,12.963615 10.856613,15.062819 0.794267,0.146191 1.083712,-0.344023 1.083712,-0.765032 0,-0.377153 -0.01354,-1.375104 -0.02155,-2.699534 C 7.50304,28.824546 6.571358,25.737136 6.571358,25.737136 5.849209,23.903013 4.8083765,23.414761 4.8083765,23.414761 c -1.4413753,-0.98431 0.1091472,-0.964818 0.1091472,-0.964818 1.593409,0.11208 2.431532,1.636286 2.431532,1.636286 1.4160373,2.425685 3.7160013,1.724974 4.6203933,1.318584 0.144233,-1.025241 0.554527,-1.724971 1.007696,-2.12162 -3.524986,-0.400543 -7.2312436,-1.762981 -7.2312436,-7.846194 0,-1.73277 0.6188468,-3.150754 1.6343416,-4.259804 -0.1637332,-0.401522 -0.7085057,-2.0163685 0.155919,-4.2013341 0,0 1.332226,-0.4268593 4.365059,1.6275146 1.265957,-0.352788 2.624495,-0.528211 3.974262,-0.535033 1.348794,0.0069 2.706358,0.182245 3.974261,0.535033 3.030887,-2.0543739 4.361163,-1.6275146 4.361163,-1.6275146 0.866383,2.1849656 0.321602,3.7998121 0.158846,4.2013341 1.017439,1.10905 1.631415,2.527034 1.631415,4.259804 0,6.098803 -3.712105,7.440775 -7.247811,7.833523 0.569144,0.490205 1.076889,1.458917 1.076889,2.93928 0,2.122592 -0.01961,3.834896 -0.01961,4.355311 0,0.424912 0.286523,0.919011 1.091509,0.764055 6.303474,-2.104075 10.847854,-8.049874 10.847854,-15.061842 0,-8.7681255 -7.108452,-15.87560192 -15.876582,-15.87560192" />
</svg>
